<?xml version="1.0" encoding="utf-8"?>
<!-- Generator: Adobe Illustrator 17.0.0, SVG Export Plug-In . SVG Version: 6.00 Build 0)  -->
<!DOCTYPE svg PUBLIC "-//W3C//DTD SVG 1.1//EN" "http://www.w3.org/Graphics/SVG/1.1/DTD/svg11.dtd">
<svg version="1.1" id="Layer_1" xmlns="http://www.w3.org/2000/svg" xmlns:xlink="http://www.w3.org/1999/xlink" x="0px" y="0px"
	 width="130px" height="50px" viewBox="0 0 130 50" enable-background="new 0 0 130 50" xml:space="preserve">
<g>
	<g>
		<path fill="#B2A5E5" d="M26.215,16.605h-5.951v15.429h5.863c5.555,0,8.794-3.306,8.794-7.758v-0.044
			C34.921,19.779,31.725,16.605,26.215,16.605z M30.535,24.342c0,2.49-1.697,3.901-4.254,3.901H24.54v-7.847h1.741
			c2.557,0,4.254,1.433,4.254,3.901V24.342z M37.764,32.033h4.298V16.605h-4.298V32.033z M51.981,22.424
			c-2.138-0.485-2.667-0.794-2.667-1.498v-0.045c0-0.551,0.507-0.992,1.543-0.992c1.366,0,2.909,0.529,4.32,1.521l2.138-3.02
			c-1.675-1.344-3.725-2.05-6.348-2.05c-3.703,0-5.973,2.072-5.973,4.937v0.044c0,3.174,2.535,4.1,5.819,4.849
			c2.094,0.485,2.601,0.837,2.601,1.477v0.044c0,0.661-0.617,1.058-1.763,1.058c-1.785,0-3.482-0.639-5.003-1.851l-2.38,2.844
			c1.896,1.697,4.496,2.557,7.23,2.557c3.747,0,6.238-1.873,6.238-5.026v-0.044C57.733,24.342,55.529,23.196,51.981,22.424z
			 M76.446,24.32v-0.044c0-4.43-3.526-7.979-8.287-7.979c-4.761,0-8.331,3.593-8.331,8.023v0.044c0,4.43,3.527,7.979,8.288,7.979
			c1.763,0,3.372-0.507,4.695-1.367l1.697,1.521l2.16-2.402L75.08,28.75C75.961,27.494,76.446,25.951,76.446,24.32z M72.104,24.408
			c0,0.529-0.088,1.036-0.265,1.498l-2.094-1.896l-2.16,2.425l2.138,1.83c-0.463,0.176-0.992,0.287-1.565,0.287
			c-2.358,0-3.945-1.961-3.945-4.188V24.32c0-2.226,1.565-4.166,3.901-4.166c2.381,0,3.99,1.962,3.99,4.21L72.104,24.408
			L72.104,24.408L72.104,24.408z M89.053,25.289c0,2.16-1.125,3.173-2.844,3.173c-1.719,0-2.843-1.057-2.843-3.284v-8.573h-4.342
			v8.662c0,4.827,2.755,7.054,7.141,7.054s7.229-2.182,7.229-7.164v-8.552h-4.342L89.053,25.289L89.053,25.289z M103.027,22.424
			c-2.138-0.485-2.667-0.794-2.667-1.498v-0.045c0-0.551,0.507-0.992,1.544-0.992c1.366,0,2.909,0.529,4.32,1.521l2.138-3.02
			c-1.675-1.344-3.724-2.05-6.347-2.05c-3.703,0-5.973,2.072-5.973,4.937v0.044c0,3.174,2.535,4.1,5.819,4.849
			c2.094,0.485,2.601,0.838,2.601,1.477v0.044c0,0.661-0.617,1.058-1.763,1.058c-1.785,0-3.483-0.64-5.003-1.852l-2.38,2.843
			c1.896,1.698,4.496,2.557,7.229,2.557c3.747,0,6.238-1.873,6.238-5.025v-0.044C108.78,24.342,106.576,23.196,103.027,22.424z"/>
	</g>
</g>
</svg>
