<?xml version="1.0" encoding="utf-8"?>
<!-- Generator: Adobe Illustrator 17.0.0, SVG Export Plug-In . SVG Version: 6.00 Build 0)  -->
<!DOCTYPE svg PUBLIC "-//W3C//DTD SVG 1.1//EN" "http://www.w3.org/Graphics/SVG/1.1/DTD/svg11.dtd">
<svg version="1.1" id="Layer_1" xmlns="http://www.w3.org/2000/svg" xmlns:xlink="http://www.w3.org/1999/xlink" x="0px" y="0px"
	 width="130px" height="50px" viewBox="0 0 130 50" enable-background="new 0 0 130 50" xml:space="preserve">
<g>
	<path fill-rule="evenodd" clip-rule="evenodd" fill="#B2A5E5" d="M42.764,33.4c0-1.11-0.058-1.226-0.584-1.401
		c-0.117,0-0.35-0.059-0.467-0.059c-0.058,0-0.117,0-0.117-0.058c0-0.058,0.059-0.117,0.234-0.117c0.584,0,1.46,0.058,1.518,0.058
		c0.059,0,0.934-0.058,1.343-0.058c0.175,0,0.234,0.058,0.234,0.117c0,0.058-0.058,0.058-0.117,0.058
		c-0.117,0-0.175,0.059-0.35,0.059c-0.35,0.058-0.467,0.292-0.467,0.817c-0.058,0.409-0.058,0.817-0.058,1.401v1.577
		c0,0.584,0,0.642-0.175,0.759c-0.876,0.467-2.102,0.584-2.861,0.584c-1.051,0-2.978-0.117-4.496-1.46
		c-0.876-0.759-1.635-2.219-1.635-3.971c0-2.161,1.051-3.737,2.277-4.496c1.226-0.818,2.569-0.876,3.621-0.876
		c0.876,0,1.81,0.175,2.102,0.234c0.292,0.058,0.759,0.117,1.109,0.117c0.117,0,0.175,0.058,0.175,0.117
		c0,0.175-0.117,0.584-0.117,1.985c0,0.175-0.058,0.292-0.117,0.292c-0.058,0-0.117-0.117-0.117-0.234
		c0-0.175-0.058-0.584-0.292-0.934c-0.35-0.526-1.46-1.109-3.212-1.109c-0.817,0-1.869,0.117-2.92,0.934
		c-0.759,0.642-1.343,1.869-1.343,3.504c0,1.927,0.993,3.387,1.46,3.854c1.051,1.051,2.336,1.46,3.562,1.46
		c0.525,0,1.226-0.059,1.577-0.292c0.175-0.117,0.234-0.234,0.234-0.467V33.4L42.764,33.4z"/>
	<path fill-rule="evenodd" clip-rule="evenodd" fill="#B2A5E5" d="M50.472,33.05c0.058,0,0.058-0.059,0.058-0.117l-1.109-3.212
		c-0.058-0.175-0.117-0.175-0.175,0l-1.051,3.212c0,0.058,0,0.117,0.059,0.117H50.472L50.472,33.05z M49.245,28.262
		c0.117-0.35,0.175-0.409,0.234-0.409c0.117-0.059,0.117,0,0.292,0.409c0.175,0.409,1.985,5.314,2.745,7.124
		c0.409,1.051,0.701,1.226,0.993,1.343c0.175,0.058,0.35,0.058,0.467,0.058c0.058,0,0.117,0,0.117,0.058
		c0,0.059-0.117,0.117-0.233,0.117c-0.175,0-1.051,0-1.869-0.058c-0.233,0-0.35,0-0.35-0.059c0-0.058,0.058-0.058,0.117-0.058
		c0.058-0.058,0.117-0.175,0.058-0.35l-1.109-2.92c0-0.058-0.059-0.058-0.117-0.058h-2.511c-0.058,0-0.058,0.058-0.117,0.117
		l-0.701,2.102c-0.058,0.292-0.117,0.526-0.117,0.759c0,0.234,0.234,0.35,0.409,0.35h0.117c0.117,0,0.117,0,0.117,0.058
		c0,0.059-0.058,0.117-0.175,0.117c-0.292,0-0.759-0.058-0.876-0.058c-0.175,0-0.817,0.058-1.343,0.058
		c-0.175,0-0.233-0.058-0.233-0.117c0-0.058,0.058-0.058,0.117-0.058c0.058,0,0.234,0,0.35,0c0.526-0.117,0.759-0.525,0.993-1.109
		L49.245,28.262L49.245,28.262z"/>
	<path fill-rule="evenodd" clip-rule="evenodd" fill="#B2A5E5" d="M57.187,33.517c0,1.109,0,2.044,0.058,2.569
		c0.059,0.35,0.117,0.584,0.467,0.642c0.175,0.058,0.409,0.058,0.525,0.058c0.058,0,0.117,0.058,0.117,0.058
		c0,0.059-0.059,0.117-0.234,0.117c-0.584,0-1.343-0.058-1.401-0.058c-0.058,0-0.817,0.058-1.168,0.058
		c-0.117,0-0.175-0.058-0.175-0.117c0,0,0-0.058,0.117-0.058c0.059,0,0.234,0,0.35-0.058c0.234-0.058,0.292-0.292,0.292-0.642
		c0.058-0.525,0.058-1.46,0.058-2.569v-5.022h-1.693c-0.759,0.059-0.993,0.117-1.226,0.409c-0.117,0.175-0.117,0.292-0.175,0.35
		c-0.059,0.117-0.059,0.117-0.117,0.117c-0.058,0-0.058,0-0.058-0.117c0-0.117,0.234-1.11,0.234-1.226
		c0.058-0.058,0.117-0.175,0.117-0.175c0.117-0.059,0.234,0.117,0.526,0.117c0.35,0.058,0.817,0.058,0.934,0.058h4.38
		c0.409,0,0.642-0.058,0.817-0.058c0.175-0.058,0.292-0.058,0.35-0.058c0.058,0,0.058,0.058,0.058,0.117
		c0,0.35-0.058,1.168-0.058,1.343c0,0.117,0,0.117-0.058,0.117c-0.058,0-0.058,0-0.117-0.175v-0.117
		c-0.059-0.35-0.292-0.642-1.401-0.701h-1.518V33.517L57.187,33.517z"/>
	<path fill-rule="evenodd" clip-rule="evenodd" fill="#B2A5E5" d="M62.559,31.415c0-1.869,0-2.161,0-2.569
		c-0.058-0.409-0.117-0.584-0.526-0.642c-0.058-0.059-0.292-0.059-0.409-0.059c0,0-0.058,0-0.058-0.058
		c0-0.058,0.058-0.117,0.175-0.117c0.526,0,1.285,0.058,1.343,0.058c0.058,0,2.394,0,2.686,0c0.175,0,0.409-0.058,0.467-0.058
		c0.058,0,0.117-0.058,0.175-0.058c0.058,0,0.058,0.058,0.058,0.117c0,0.058-0.058,0.175-0.117,0.526c0,0.117,0,0.642-0.059,0.759
		c0,0.058,0,0.175-0.058,0.175c-0.058,0-0.117-0.058-0.117-0.175c0-0.058,0-0.292-0.058-0.409c-0.058-0.234-0.175-0.35-0.818-0.409
		c-0.233-0.058-1.46-0.058-1.635-0.058c0,0-0.058,0.058-0.058,0.117v3.27c0,0.117,0,0.117,0.058,0.117c0.175,0,1.635,0,1.869,0
		c0.292-0.058,0.467-0.058,0.584-0.175c0.058-0.117,0.117-0.175,0.175-0.175c0,0,0.058,0.059,0.058,0.117
		c0,0.058-0.058,0.292-0.117,0.642c0,0.233-0.058,0.701-0.058,0.759c0,0.117,0,0.233-0.058,0.233c-0.058,0-0.117,0-0.117-0.117
		c0-0.117,0-0.234,0-0.35c-0.058-0.175-0.175-0.409-0.642-0.409c-0.292-0.058-1.46-0.058-1.635-0.058c-0.058,0-0.117,0-0.117,0.058
		v1.051c0,0.409,0,1.752,0,2.044c0.058,0.817,0.233,0.934,1.343,0.934c0.35,0,0.818,0,1.168-0.117
		c0.292-0.117,0.409-0.35,0.525-0.876c0-0.117,0-0.175,0.058-0.175c0.117,0,0.117,0.117,0.117,0.175
		c0,0.117-0.117,0.934-0.175,1.168c-0.058,0.292-0.175,0.292-0.642,0.292c-1.752,0-2.569-0.058-2.861-0.058
		c-0.058,0-0.233,0-0.467,0c-0.234,0.058-0.526,0.058-0.701,0.058c-0.117,0-0.175-0.058-0.175-0.117c0,0,0-0.058,0.117-0.058
		c0.058,0,0.233,0,0.35-0.058c0.233-0.058,0.292-0.292,0.292-0.642c0.058-0.525,0.058-1.46,0.058-2.569V31.415L62.559,31.415z"/>
	<path fill-rule="evenodd" clip-rule="evenodd" fill="#B2A5E5" d="M68.866,36.787c-0.117-0.058-0.175-0.117-0.175-0.467
		c0-0.584,0.059-1.051,0.059-1.226c0.058-0.117,0.058-0.175,0.117-0.175s0.058,0,0.058,0.117c0,0.117,0,0.292,0.058,0.409
		c0.175,0.876,0.934,1.226,1.752,1.226c1.109,0,1.635-0.817,1.635-1.577c0-0.817-0.35-1.285-1.343-2.102l-0.525-0.467
		c-1.226-1.051-1.518-1.752-1.518-2.569c0-1.285,0.934-2.102,2.453-2.102c0.409-0.059,0.759,0,1.051,0.117
		c0.234,0,0.35,0.058,0.409,0.058c0.117,0,0.117,0,0.117,0.058c0,0.058,0,0.467,0,1.226c0,0.233-0.058,0.292-0.117,0.292
		c-0.058,0-0.058-0.059-0.117-0.117c0-0.175-0.058-0.467-0.117-0.642c-0.058-0.117-0.409-0.584-1.46-0.584
		c-0.818,0-1.46,0.467-1.46,1.343c0,0.701,0.35,1.109,1.46,1.985l0.292,0.292c1.401,1.109,1.693,1.81,1.693,2.745
		c0,0.526-0.175,1.401-0.993,1.985c-0.467,0.35-1.109,0.525-1.752,0.525C69.917,37.138,69.391,37.021,68.866,36.787L68.866,36.787z"
		/>
	<path fill-rule="evenodd" clip-rule="evenodd" fill="#B2A5E5" d="M79.844,31.298c-0.058,0.175-0.117,0.467-0.233,0.759
		c-0.292,1.109-0.584,2.161-0.876,3.27c-0.292,0.876-0.584,1.401-0.759,1.577c-0.117,0.117-0.525,0.467-1.109,0.467
		c-0.409,0-0.584-0.292-0.584-0.467c0-0.234,0.117-0.292,0.175-0.35c0.117-0.117,0.175-0.059,0.292,0.058
		c0.117,0.233,0.35,0.409,0.525,0.409c0.175,0,0.409-0.175,0.642-0.817c0.467-1.635,0.759-3.329,1.226-4.905h-0.759
		c-0.117-0.058-0.058-0.233,0.058-0.35h0.818c0.233-0.876,0.467-1.635,1.051-2.277c0.467-0.584,1.051-0.817,1.635-0.817
		c0.409,0,0.759,0.233,0.759,0.642c0,0.292-0.234,0.584-0.409,0.584c-0.058,0-0.117-0.117-0.117-0.175
		c-0.058-0.584-0.35-0.759-0.584-0.759c-0.292,0-0.525,0.234-0.759,0.526c-0.467,0.642-0.642,1.46-0.876,2.277h1.168
		c0.058,0.117,0.058,0.234-0.117,0.35H79.844L79.844,31.298z"/>
	<path fill-rule="evenodd" clip-rule="evenodd" fill="#B2A5E5" d="M83.698,31.59c-0.584,0.759-0.934,1.927-0.993,2.394
		c0,0.35,0.117,0.642,0.409,0.642c0.233,0,0.467-0.117,0.759-0.525c0.409-0.526,0.876-1.81,0.876-2.336
		c0.058-0.292,0-0.642-0.351-0.642C84.224,31.123,83.99,31.181,83.698,31.59L83.698,31.59z M85.45,32.057
		c-0.059,0.525-0.35,1.46-1.051,2.161c-0.584,0.642-1.109,0.701-1.343,0.701c-0.642,0-0.993-0.467-0.993-1.285
		c0.058-0.584,0.409-1.577,1.051-2.161c0.525-0.526,0.934-0.642,1.343-0.642C85.158,30.831,85.45,31.357,85.45,32.057L85.45,32.057z
		"/>
	<path fill-rule="evenodd" clip-rule="evenodd" fill="#B2A5E5" d="M87.786,33.926c-0.117,0.234-0.058,0.35,0.058,0.35
		c0.117,0,0.526-0.292,0.993-0.817c0.876-0.876,1.401-1.985,1.693-2.569c0.234-0.058,0.467,0.058,0.467,0.175
		c-0.058,0.233-0.701,1.869-1.109,2.978c-0.058,0.175-0.058,0.234,0.058,0.234c0.175,0,0.701-0.409,0.934-0.701
		c0.058-0.058,0.175,0,0.175,0.117c-0.234,0.467-1.168,1.226-1.693,1.226c-0.117,0-0.292-0.175-0.234-0.35l0.642-1.752v-0.058
		c-0.701,0.934-1.869,2.161-2.394,2.161c-0.409,0-0.467-0.409-0.292-0.817l0.876-2.394c0.058-0.175,0.058-0.234,0-0.234
		c-0.175,0-0.642,0.409-0.876,0.642c-0.117,0-0.175-0.058-0.175-0.117c0.233-0.409,1.226-1.168,1.635-1.168
		c0.117,0,0.35,0.117,0.292,0.292L87.786,33.926L87.786,33.926z"/>
	<path fill-rule="evenodd" clip-rule="evenodd" fill="#B2A5E5" d="M93.742,32.933L93.742,32.933
		c0.701-1.051,1.635-2.102,2.394-2.102c0.35,0,0.526,0.175,0.526,0.526c0,0.117-0.058,0.467-0.175,0.642
		c-0.175,0.525-0.817,2.102-0.876,2.161c-0.058,0.117-0.058,0.175,0,0.175c0.175,0,0.642-0.292,0.934-0.642
		c0.117,0,0.117,0.059,0.117,0.117c-0.35,0.642-1.109,1.109-1.635,1.109c-0.058,0-0.234-0.117-0.234-0.234
		c0-0.117,0.059-0.175,0.234-0.642c0.234-0.467,0.584-1.46,0.759-1.927c0.117-0.175,0.234-0.526,0.234-0.701
		c0-0.117,0-0.234-0.175-0.234c-0.233,0-0.759,0.467-1.285,1.168c-0.526,0.642-0.934,1.401-1.46,2.453
		c-0.059,0.058-0.117,0.117-0.175,0.117c-0.117,0-0.409-0.058-0.292-0.234l1.109-3.095c0.059-0.117,0.059-0.233-0.058-0.233
		c-0.175,0-0.525,0.233-0.817,0.525c-0.117,0-0.175-0.058-0.175-0.175c0.409-0.467,0.993-0.876,1.46-0.876
		c0.233,0,0.35,0.175,0.233,0.409L93.742,32.933L93.742,32.933z"/>
	<path fill-rule="evenodd" clip-rule="evenodd" fill="#B2A5E5" d="M100.34,31.532c-0.409,0.35-1.109,1.285-1.401,1.869
		c-0.292,0.642-0.292,0.817-0.292,0.934c0,0.117,0.117,0.234,0.175,0.234c0.175,0,0.642-0.175,1.285-0.876
		c0.759-0.759,1.051-1.343,1.168-1.869c0.117-0.409,0-0.701-0.234-0.701C100.808,31.123,100.574,31.298,100.34,31.532L100.34,31.532
		z M102.209,29.138c0.233-0.584,0.233-0.759,0.117-0.817l-0.234-0.175c0,0,0-0.058,0.059-0.117c0.175-0.058,0.701-0.175,1.109-0.175
		l0.058,0.058c-0.175,0.525-0.35,0.876-0.642,1.693c-0.934,2.686-1.401,4.204-1.46,4.496c-0.058,0.117-0.058,0.233,0.058,0.233
		c0.175,0,0.759-0.467,1.051-0.876c0.058,0,0.117,0.058,0.117,0.117c-0.233,0.526-1.109,1.343-1.577,1.343
		c-0.234,0-0.35-0.175-0.35-0.292c0-0.117,0.058-0.292,0.117-0.584l0.35-0.934V33.05c-0.701,0.934-1.401,1.869-2.336,1.869
		c-0.35,0-0.584-0.292-0.584-0.701c0-0.701,0.525-1.869,1.285-2.511c0.642-0.642,1.226-0.876,1.693-0.876
		c0.175,0,0.409,0.058,0.526,0.292L102.209,29.138L102.209,29.138z"/>
	<path fill-rule="evenodd" clip-rule="evenodd" fill="#B2A5E5" d="M105.479,31.707c-0.584,0.525-1.226,1.81-1.226,2.511
		c0,0.117,0.117,0.175,0.175,0.175c0.117,0,0.409-0.117,0.934-0.642c0.701-0.701,1.109-1.518,1.285-2.102
		c-0.058-0.175-0.233-0.351-0.467-0.351S105.771,31.415,105.479,31.707L105.479,31.707z M107.173,30.597
		c0.117-0.058,0.409,0,0.467,0.117c-0.175,0.409-0.993,2.511-1.285,3.445c-0.059,0.117-0.059,0.175,0.058,0.175
		c0.175,0,0.409-0.117,0.993-0.642c0.058,0,0.117,0.059,0.117,0.117c-0.409,0.584-1.109,1.109-1.635,1.109
		c-0.175,0-0.233-0.175-0.233-0.292c0-0.058,0-0.117,0.058-0.35l0.35-0.876h-0.058c-0.642,0.817-1.635,1.518-2.102,1.518
		c-0.234,0-0.409-0.292-0.409-0.526c0-0.233,0.175-1.051,0.818-1.927c0.467-0.642,0.876-0.993,1.285-1.226
		c0.35-0.233,0.642-0.292,0.876-0.292c0.117,0,0.175,0.059,0.234,0.059c0,0,0.117,0.117,0.175,0.233L107.173,30.597L107.173,30.597z
		"/>
	<path fill-rule="evenodd" clip-rule="evenodd" fill="#B2A5E5" d="M110.676,31.415l-0.876,2.569c0,0.175,0,0.234,0.117,0.234
		c0.117,0,0.759-0.526,1.051-0.876c0.117,0,0.175,0.059,0.175,0.175c-0.584,0.817-1.46,1.401-1.869,1.401
		c-0.117,0-0.234-0.117-0.234-0.292c0-0.117,0-0.234,0.117-0.525l0.876-2.686h-0.701c-0.058-0.117,0-0.234,0.058-0.292l0.818-0.117
		l0.525-0.934c0.058-0.058,0.292-0.058,0.35,0.058l-0.292,0.934h1.051c0.059,0.117,0,0.292-0.117,0.35H110.676L110.676,31.415z"/>
	<path fill-rule="evenodd" clip-rule="evenodd" fill="#B2A5E5" d="M115.114,28.846c0,0.292-0.175,0.642-0.526,0.642
		c-0.233,0-0.292-0.233-0.292-0.409c0-0.175,0.117-0.584,0.467-0.584C114.997,28.495,115.114,28.67,115.114,28.846L115.114,28.846z
		 M113.888,31.649c0.058-0.117,0.058-0.234,0-0.234c-0.058,0-0.35,0.117-0.817,0.525c-0.058,0-0.117-0.058-0.117-0.175
		c0.525-0.584,1.285-0.934,1.577-0.934c0.058,0,0.117,0.058,0.175,0.058c0.058,0.117,0.058,0.175-0.059,0.467l-1.168,2.745
		c0,0.117-0.058,0.233,0.058,0.233c0.175,0,0.642-0.35,0.993-0.759c0.058,0.058,0.117,0.117,0.117,0.175
		c-0.117,0.292-1.109,1.168-1.752,1.168c-0.058,0-0.117-0.058-0.175-0.117c-0.058-0.059-0.058-0.117-0.058-0.234L113.888,31.649
		L113.888,31.649z"/>
	<path fill-rule="evenodd" clip-rule="evenodd" fill="#B2A5E5" d="M117.975,31.59c-0.525,0.759-0.934,1.927-0.934,2.394
		c0,0.35,0.117,0.642,0.409,0.642c0.175,0,0.409-0.117,0.759-0.525c0.409-0.526,0.817-1.81,0.876-2.336
		c0-0.292-0.058-0.642-0.409-0.642C118.501,31.123,118.267,31.181,117.975,31.59L117.975,31.59z M119.727,32.057
		c0,0.525-0.292,1.46-0.993,2.161c-0.584,0.642-1.109,0.701-1.401,0.701c-0.584,0-0.993-0.467-0.934-1.285
		c0.058-0.584,0.409-1.577,1.051-2.161c0.467-0.526,0.934-0.642,1.285-0.642C119.435,30.831,119.786,31.357,119.727,32.057
		L119.727,32.057z"/>
	<path fill-rule="evenodd" clip-rule="evenodd" fill="#B2A5E5" d="M122.355,32.933L122.355,32.933
		c0.701-1.051,1.635-2.102,2.336-2.102c0.409,0,0.584,0.175,0.584,0.526c0,0.117-0.117,0.467-0.175,0.642
		c-0.175,0.525-0.876,2.102-0.876,2.161c-0.058,0.117-0.058,0.175,0,0.175c0.175,0,0.642-0.292,0.876-0.642
		c0.175,0,0.175,0.059,0.175,0.117c-0.35,0.642-1.109,1.109-1.635,1.109c-0.117,0-0.233-0.117-0.233-0.234
		c0-0.117,0-0.175,0.233-0.642c0.175-0.467,0.526-1.46,0.759-1.927c0.058-0.175,0.233-0.526,0.233-0.701
		c0-0.117-0.058-0.234-0.175-0.234c-0.234,0-0.818,0.467-1.343,1.168c-0.467,0.642-0.876,1.401-1.46,2.453
		c-0.059,0.058-0.059,0.117-0.175,0.117c-0.117,0-0.35-0.058-0.292-0.234l1.168-3.095c0-0.117,0-0.233-0.059-0.233
		c-0.233,0-0.525,0.233-0.876,0.525c-0.058,0-0.117-0.058-0.117-0.175c0.35-0.467,0.934-0.876,1.46-0.876
		c0.175,0,0.292,0.175,0.233,0.409L122.355,32.933L122.355,32.933z"/>
	<path fill-rule="evenodd" clip-rule="evenodd" fill="#B2A5E5" d="M7.552,19.094c0,1.11,0,2.803,0,3.037
		c0.058,0.642,0.058,0.876,0.467,1.051c0.35,0.175,0.934,0.234,1.168,0.234c0.759,0,1.927-0.409,1.927-1.985
		c0-0.817-0.292-2.044-1.285-2.745c-0.467-0.35-0.817-0.409-1.168-0.409c-0.175-0.058-0.876-0.058-1.051-0.058
		c-0.058,0-0.058,0.058-0.058,0.117V19.094L7.552,19.094z M7.552,17.634c0,0.117,0,0.175,0.058,0.175
		c0.117,0,0.35,0.058,0.817,0.058c0.759,0,0.993-0.058,1.285-0.35c0.292-0.35,0.467-0.818,0.467-1.401
		c0-1.168-0.525-2.394-1.81-2.394c-0.175,0-0.467,0-0.701,0.058c-0.117,0.058-0.117,0.058-0.117,0.175V17.634L7.552,17.634z
		 M6.443,17.342c0-2.161,0-2.511-0.058-2.978c0-0.467-0.117-0.701-0.584-0.818c-0.117,0-0.292,0-0.467,0
		c-0.058,0-0.058-0.058-0.058-0.117c0-0.058,0.058-0.117,0.175-0.117c0.642,0,1.518,0.058,1.577,0.058
		c0.292,0,0.817-0.058,1.46-0.058c2.219,0,2.745,1.401,2.745,2.102c0,1.109-0.642,1.81-1.285,2.511
		c0.993,0.292,2.336,1.285,2.336,2.92c0,1.46-1.109,2.978-3.445,2.978c-0.35,0-1.752-0.058-1.81-0.058c-0.058,0-0.934,0-1.343,0
		c-0.175,0-0.233,0-0.233-0.058c0-0.059,0.058-0.117,0.117-0.117c0.117,0,0.292,0,0.409-0.058c0.292-0.058,0.35-0.35,0.409-0.759
		c0.058-0.584,0.058-1.635,0.058-2.978V17.342L6.443,17.342z"/>
	<path fill-rule="evenodd" clip-rule="evenodd" fill="#B2A5E5" d="M16.311,20.378c0,1.109,0,2.044,0.058,2.569
		c0,0.292,0.058,0.584,0.409,0.642c0.175,0,0.467,0.058,0.526,0.058c0.058,0,0.117,0,0.117,0.059c0,0.058-0.058,0.058-0.175,0.058
		c-0.642,0-1.401,0-1.46,0c-0.058,0-0.817,0-1.168,0c-0.117,0-0.175,0-0.175-0.058c0-0.059,0.059-0.059,0.117-0.059
		c0.117,0,0.233-0.058,0.35-0.058c0.233-0.058,0.292-0.35,0.35-0.642c0.058-0.525,0.058-1.46,0.058-2.569v-2.102
		c0-1.869,0-2.161-0.058-2.569c0-0.409-0.117-0.584-0.35-0.642c-0.175-0.058-0.292-0.058-0.409-0.058
		c-0.059,0-0.059-0.059-0.059-0.059c0-0.117,0.059-0.117,0.175-0.117c0.35,0,1.109,0.058,1.168,0.058
		c0.058,0,0.818-0.058,1.168-0.058c0.117,0,0.175,0,0.175,0.117c0,0-0.058,0.059-0.117,0.059c-0.058,0-0.117,0-0.292,0
		c-0.292,0.058-0.409,0.292-0.409,0.701c0,0.409,0,0.701,0,2.569V20.378L16.311,20.378z"/>
	<path fill-rule="evenodd" clip-rule="evenodd" fill="#B2A5E5" d="M21.333,20.378c0,1.752,0.058,2.511,0.292,2.686
		c0.175,0.233,0.467,0.292,1.401,0.292c0.584,0,1.109,0,1.401-0.35c0.175-0.175,0.292-0.467,0.292-0.701
		c0-0.117,0.058-0.175,0.117-0.175c0.058,0,0.058,0.058,0.058,0.175c0,0.117-0.058,0.876-0.175,1.226
		c-0.058,0.234-0.117,0.292-0.701,0.292c-1.693,0-2.453-0.058-3.153-0.058c-0.058,0-0.234,0-0.467,0c-0.233,0-0.525,0-0.701,0
		c-0.117,0-0.175,0-0.175-0.058c0-0.059,0.058-0.059,0.117-0.059c0.058,0,0.234-0.058,0.35-0.058
		c0.234-0.058,0.292-0.35,0.292-0.642c0.117-0.525,0.117-1.46,0.117-2.569v-2.102c0-1.869,0-2.161-0.058-2.569
		c0-0.409-0.117-0.584-0.467-0.701c-0.117,0-0.292,0-0.409,0c-0.058,0-0.117-0.059-0.117-0.059c0-0.117,0.059-0.117,0.175-0.117
		c0.525,0,1.285,0.058,1.343,0.058s0.934-0.058,1.285-0.058c0.117,0,0.175,0,0.175,0.117c0,0-0.058,0.059-0.117,0.059
		c-0.058,0-0.234,0-0.35,0c-0.35,0.058-0.467,0.292-0.467,0.701c-0.058,0.409-0.058,0.701-0.058,2.569V20.378L21.333,20.378z"/>
	<path fill-rule="evenodd" clip-rule="evenodd" fill="#B2A5E5" d="M27.932,20.378c0,1.752,0.058,2.511,0.234,2.686
		c0.175,0.233,0.467,0.292,1.401,0.292c0.642,0,1.168,0,1.401-0.35c0.175-0.175,0.292-0.467,0.35-0.701c0-0.117,0-0.175,0.058-0.175
		c0.058,0,0.117,0.058,0.117,0.175c0,0.117-0.117,0.876-0.175,1.226c-0.117,0.234-0.117,0.292-0.759,0.292
		c-1.693,0-2.453-0.058-3.153-0.058c0,0-0.234,0-0.467,0c-0.233,0-0.467,0-0.642,0c-0.175,0-0.233,0-0.233-0.058
		c0-0.059,0.058-0.059,0.117-0.059c0.117,0,0.234-0.058,0.35-0.058c0.234-0.058,0.292-0.35,0.35-0.642
		c0.058-0.525,0.058-1.46,0.058-2.569v-2.102c0-1.869,0-2.161-0.058-2.569c0-0.409-0.058-0.584-0.467-0.701
		c-0.117,0-0.292,0-0.409,0c-0.059,0-0.059-0.059-0.059-0.059c0-0.117,0.059-0.117,0.175-0.117c0.525,0,1.226,0.058,1.285,0.058
		c0.058,0,0.934-0.058,1.285-0.058c0.117,0,0.175,0,0.175,0.117l-0.058,0.059c-0.117,0-0.292,0-0.409,0
		c-0.35,0.058-0.409,0.292-0.467,0.701c0,0.409,0,0.701,0,2.569V20.378L27.932,20.378z"/>
	<path fill-rule="evenodd" clip-rule="evenodd" fill="#B2A5E5" d="M35.873,18.743c0-0.117,0-0.233,0-0.233
		c0-0.234-0.117-0.35-0.292-0.35c-0.175,0-0.467,0.175-0.759,0.584c-0.35,0.409-0.467,0.759-0.584,1.226
		C34.997,19.444,35.523,19.035,35.873,18.743L35.873,18.743z M33.596,20.67c0-0.467,0.175-1.343,0.934-2.161
		c0.642-0.642,1.285-0.759,1.46-0.759c0.467,0,0.526,0.292,0.642,0.409c0.409-0.35,1.109-1.051,1.401-1.46
		c0.117-0.175,0.35-0.584,0.35-0.817c0-0.175-0.058-0.234-0.117-0.292c-0.117-0.117-0.117-0.117-0.117-0.233
		c0-0.292,0.175-0.409,0.409-0.409c0.233,0,0.409,0.117,0.409,0.526c0,0.525-0.292,1.168-1.226,2.044
		c-0.817,0.817-2.453,2.102-3.504,2.803v0.117c0,1.226,0.993,1.693,1.752,1.693c0.818,0,1.81-0.584,2.394-1.635
		c0.409-0.701,0.526-1.226,0.526-2.044c-0.117-0.058-0.292-0.175-0.526-0.175c-0.292,0-0.701,0.292-0.701,0.642
		c0,0.117,0.058,0.233,0.058,0.35c0.059,0.117,0.117,0.234,0.117,0.292c0,0.058-0.058,0.292-0.35,0.292
		c-0.175,0-0.409-0.175-0.409-0.409c0-0.292,0.175-0.701,0.642-1.168c0.409-0.292,0.876-0.409,0.993-0.409
		c0.526,0,0.818,0.35,1.343,0.817c0.234,0.175,0.234,0.234,0.409,0.234c0.117,0,0.175-0.117,0.175-0.292c0-0.117,0-0.175,0-0.234
		c-0.058-0.117-0.058-0.117-0.058-0.175c0-0.117,0.117-0.234,0.292-0.234c0.292,0,0.409,0.292,0.409,0.526
		c0,0.233-0.117,0.409-0.175,0.525c-0.117,0.058-0.175,0.058-0.292,0.058c-0.175,0.058-0.525,0.175-0.759,0.234
		c-0.058,0.117-0.175,0.058-0.234,0c-0.058-0.117-0.35-0.467-0.642-0.759c0,0.175-0.059,0.701-0.059,0.876
		c0,0.292-0.233,1.285-0.993,2.161c-0.701,0.759-1.693,1.109-2.394,1.109C34.18,22.714,33.596,21.722,33.596,20.67L33.596,20.67z"/>
	<path fill-rule="evenodd" clip-rule="evenodd" fill="#B2A5E5" d="M55.027,21.955c0.058,0.467,0.117,1.226,0.701,1.46
		c0.409,0.117,0.759,0.117,0.876,0.117c0.117,0,0.117,0,0.117,0.058c0,0.058-0.117,0.117-0.292,0.117
		c-0.292,0-1.752-0.059-2.277-0.059c-0.292-0.058-0.35-0.117-0.35-0.175c0-0.058,0-0.058,0.058-0.058
		c0.117-0.058,0.117-0.292,0.058-0.526l-0.642-7.124h-0.058l-3.329,7.182c-0.292,0.584-0.292,0.759-0.409,0.759
		c-0.117,0-0.175-0.175-0.467-0.642c-0.35-0.701-1.518-3.095-1.577-3.212c-0.117-0.234-1.635-3.562-1.81-3.971h-0.058l-0.526,6.423
		c0,0.233,0,0.467,0,0.701c0,0.233,0.117,0.409,0.35,0.467c0.234,0,0.409,0.058,0.526,0.058c0,0,0.058,0,0.058,0.058
		c0,0.117-0.058,0.117-0.234,0.117c-0.467,0-1.168-0.059-1.285-0.059c-0.117,0-0.759,0.059-1.11,0.059c-0.117,0-0.233,0-0.233-0.117
		c0-0.058,0.058-0.058,0.117-0.058c0.117,0,0.234,0,0.409-0.058c0.467-0.058,0.526-0.642,0.584-1.168l0.934-8.993
		c0.058-0.175,0.117-0.234,0.175-0.234c0.058,0,0.117,0.058,0.234,0.175l4.146,8.701l4.029-8.701
		c0.059-0.117,0.059-0.175,0.175-0.175c0.117,0,0.117,0.117,0.175,0.35L55.027,21.955L55.027,21.955z"/>
	<path fill-rule="evenodd" clip-rule="evenodd" fill="#B2A5E5" d="M58.647,18.16c0-1.81,0-2.161,0-2.511
		c0-0.409-0.117-0.642-0.525-0.701c-0.058,0-0.292-0.058-0.35-0.058c-0.058,0-0.117,0-0.117-0.058c0-0.058,0.058-0.117,0.175-0.117
		c0.526,0,1.285,0.058,1.343,0.058c0.058,0,2.394,0,2.686,0c0.175,0,0.409-0.058,0.467-0.058c0.058,0,0.117-0.058,0.175-0.058
		c0.058,0,0.058,0.058,0.058,0.117c0,0.058-0.058,0.234-0.117,0.525c0,0.117,0,0.642-0.058,0.818c0,0.058,0,0.117-0.058,0.117
		c-0.058,0-0.117-0.058-0.117-0.175c0-0.059,0-0.292-0.058-0.409c-0.059-0.175-0.175-0.35-0.818-0.409
		c-0.233,0-1.46-0.058-1.635-0.058c0,0-0.058,0.058-0.058,0.117v3.27c0,0.117,0,0.175,0.058,0.175c0.175,0,1.635,0,1.869-0.058
		c0.292,0,0.467-0.058,0.584-0.175c0.058-0.059,0.117-0.117,0.175-0.117c0,0,0.058,0,0.058,0.058c0,0.059-0.058,0.292-0.117,0.701
		c0,0.234-0.058,0.642-0.058,0.759c0,0.058,0,0.175-0.058,0.175c-0.059,0-0.117,0-0.117-0.058c0-0.117,0-0.234,0-0.409
		c-0.058-0.175-0.175-0.35-0.642-0.409c-0.292-0.059-1.46-0.059-1.635-0.059c-0.059,0-0.117,0-0.117,0.059v1.051
		c0,0.409,0,1.81,0,2.044c0.058,0.817,0.234,0.934,1.401,0.934c0.292,0,0.818,0,1.11-0.117c0.292-0.117,0.409-0.35,0.525-0.817
		c0-0.175,0.058-0.175,0.117-0.175c0.059,0,0.059,0.058,0.059,0.175c0,0.058-0.117,0.876-0.175,1.109
		c-0.058,0.35-0.175,0.35-0.642,0.35c-1.752,0-2.511-0.117-2.861-0.117c-0.058,0-0.234,0.059-0.467,0.059c-0.234,0-0.526,0-0.701,0
		c-0.117,0-0.175,0-0.175-0.117c0,0,0-0.058,0.117-0.058c0.059,0,0.234,0,0.35-0.058c0.234-0.058,0.292-0.292,0.292-0.642
		c0.058-0.467,0.058-1.401,0.058-2.569V18.16L58.647,18.16z"/>
	<path fill-rule="evenodd" clip-rule="evenodd" fill="#B2A5E5" d="M66.589,20.262c0,1.752,0,2.511,0.234,2.745
		c0.175,0.175,0.467,0.292,1.401,0.292c0.642,0,1.168-0.058,1.401-0.35c0.175-0.233,0.292-0.525,0.35-0.759
		c0-0.058,0-0.117,0.058-0.117c0.058,0,0.058,0.058,0.058,0.175c0,0.117-0.058,0.818-0.117,1.168
		c-0.117,0.292-0.175,0.35-0.759,0.35c-1.693,0-2.453-0.117-3.153-0.117c-0.058,0-0.234,0.059-0.467,0.059c-0.233,0-0.467,0-0.642,0
		c-0.117,0-0.234,0-0.234-0.117c0,0,0.058-0.058,0.117-0.058c0.117,0,0.234,0,0.35-0.058c0.234-0.058,0.292-0.292,0.35-0.642
		c0.058-0.467,0.058-1.401,0.058-2.569V18.16c0-1.81,0-2.161-0.058-2.511c0-0.409-0.117-0.642-0.467-0.701
		c-0.117,0-0.292-0.058-0.409-0.058c-0.058,0-0.117,0-0.117-0.058c0-0.058,0.059-0.117,0.234-0.117c0.526,0,1.226,0.058,1.285,0.058
		c0.058,0,0.934-0.058,1.285-0.058c0.117,0,0.175,0.058,0.175,0.117c0,0.058-0.058,0.058-0.058,0.058
		c-0.117,0-0.292,0.058-0.409,0.058c-0.35,0.059-0.467,0.234-0.467,0.701c0,0.35,0,0.701,0,2.511V20.262L66.589,20.262z"/>
	<path fill-rule="evenodd" clip-rule="evenodd" fill="#B2A5E5" d="M73.421,20.262c0,1.168,0,2.102,0.058,2.569
		c0.058,0.35,0.117,0.584,0.467,0.642c0.175,0.058,0.409,0.058,0.526,0.058c0.058,0,0.058,0.058,0.058,0.058
		c0,0.058-0.058,0.117-0.175,0.117c-0.642,0-1.343-0.059-1.401-0.059c-0.059,0-0.818,0.059-1.168,0.059
		c-0.117,0-0.175,0-0.175-0.117c0,0,0-0.058,0.058-0.058c0.117,0,0.234,0,0.35-0.058c0.234-0.058,0.292-0.292,0.35-0.642
		c0.058-0.467,0.058-1.401,0.058-2.569V18.16c0-1.81,0-2.161,0-2.511c-0.058-0.409-0.175-0.642-0.409-0.701
		c-0.117,0-0.292-0.058-0.35-0.058c-0.058,0-0.117,0-0.117-0.058c0-0.058,0.058-0.117,0.175-0.117c0.409,0,1.168,0.058,1.226,0.058
		c0.058,0,0.759-0.058,1.109-0.058c0.117,0,0.175,0.058,0.175,0.117c0,0.058-0.058,0.058-0.058,0.058
		c-0.117,0-0.175,0.058-0.292,0.058c-0.35,0.059-0.409,0.234-0.467,0.701c0,0.35,0,0.701,0,2.511V20.262L73.421,20.262z"/>
	<path fill-rule="evenodd" clip-rule="evenodd" fill="#B2A5E5" d="M77.8,22.072c0.058,0.993,0.175,1.285,0.467,1.401
		c0.234,0.058,0.467,0.058,0.584,0.058c0.058,0,0.117,0.058,0.117,0.058c0,0.117-0.058,0.117-0.234,0.117
		c-0.642,0-1.109-0.059-1.226-0.059c-0.117,0-0.584,0.059-1.11,0.059c-0.117,0-0.175,0-0.175-0.117c0,0,0-0.058,0.058-0.058
		c0.117,0,0.292,0,0.467-0.058c0.292-0.058,0.35-0.409,0.35-1.518v-6.774c0-0.467,0.058-0.584,0.175-0.584
		c0.058,0,0.292,0.234,0.409,0.35c0.175,0.234,1.927,2.102,3.679,4.088c1.168,1.226,2.453,2.686,2.803,3.095l-0.117-6.015
		c0-0.818-0.058-1.051-0.467-1.168c-0.175,0-0.467-0.058-0.525-0.058c-0.117,0-0.117,0-0.117-0.058c0-0.058,0.117-0.117,0.234-0.117
		c0.525,0,1.109,0.058,1.226,0.058c0.117,0,0.642,0,1.11,0c0.117,0,0.233,0,0.233,0.058c0,0.058-0.058,0.117-0.117,0.117
		c-0.058,0-0.175,0-0.292,0c-0.409,0.117-0.467,0.35-0.467,1.051l-0.117,6.832c0,0.759-0.059,0.934-0.117,0.934
		c-0.117,0-0.234-0.117-0.876-0.759c-0.117-0.117-1.81-1.81-3.037-3.212c-1.343-1.46-1.81-2.102-2.745-3.27L77.8,22.072L77.8,22.072
		z"/>
	<path fill-rule="evenodd" clip-rule="evenodd" fill="#B2A5E5" d="M89.07,19.444c0,1.285,0,2.336,0,2.569
		c0,0.292,0.058,0.817,0.117,0.934c0.175,0.234,0.642,0.467,1.985,0.467c1.109,0,2.102-0.409,2.803-1.109
		c0.642-0.584,0.934-1.752,0.934-2.803c0-1.518-0.642-2.511-1.109-3.037c-1.11-1.168-2.453-1.343-3.854-1.343
		c-0.233,0-0.642,0.058-0.759,0.117c-0.058,0.058-0.117,0.117-0.117,0.234c0,0.409,0,1.577,0,2.511V19.444L89.07,19.444z
		 M88.078,18.16c0-1.81,0-2.161,0-2.511c-0.058-0.409-0.117-0.642-0.525-0.701c-0.117,0-0.292-0.058-0.409-0.058
		c-0.058,0-0.058,0-0.058-0.058c0-0.058,0.058-0.117,0.175-0.117c0.525,0,1.226,0.058,1.285,0.058c0.175,0,0.876-0.058,1.577-0.058
		c1.168,0,3.329-0.058,4.73,1.401c0.584,0.584,1.109,1.577,1.109,2.978c0,1.518-0.584,2.628-1.226,3.329
		c-0.525,0.584-1.577,1.401-3.562,1.401c-0.993,0-2.511-0.175-2.628-0.175c-0.058,0-0.759,0.059-1.109,0.059
		c-0.117,0-0.175,0-0.175-0.117c0,0,0-0.058,0.058-0.058c0.117,0,0.234,0,0.35-0.058c0.234-0.058,0.292-0.292,0.35-0.642
		c0.058-0.467,0.058-1.401,0.058-2.569V18.16L88.078,18.16z"/>
	<path fill-rule="evenodd" clip-rule="evenodd" fill="#B2A5E5" d="M101.216,19.794c0.058,0,0.058-0.058,0.058-0.117l-1.109-3.153
		c-0.058-0.175-0.117-0.175-0.175,0l-1.051,3.153c0,0.058,0,0.117,0.058,0.117H101.216L101.216,19.794z M99.99,15.065
		c0.175-0.409,0.234-0.467,0.292-0.467s0.117,0.059,0.234,0.409c0.175,0.467,2.044,5.372,2.745,7.124
		c0.409,1.051,0.759,1.285,0.993,1.343c0.175,0.058,0.35,0.058,0.467,0.058c0.058,0,0.117,0,0.117,0.058
		c0,0.117-0.117,0.117-0.233,0.117c-0.175,0-1.051,0-1.81,0c-0.233-0.059-0.35-0.059-0.35-0.117c0-0.058,0-0.058,0.059-0.058
		c0.058-0.058,0.117-0.117,0.058-0.35l-1.051-2.92c-0.058-0.058-0.058-0.058-0.117-0.058h-2.511c-0.058,0-0.117,0.058-0.117,0.117
		l-0.701,2.102c-0.117,0.292-0.175,0.584-0.175,0.759c0,0.234,0.234,0.35,0.467,0.35h0.058c0.117,0,0.175,0.058,0.175,0.058
		c0,0.117-0.117,0.117-0.175,0.117c-0.292,0-0.818-0.059-0.934-0.059c-0.117,0-0.759,0.059-1.343,0.059
		c-0.117,0-0.233,0-0.233-0.117c0,0,0.058-0.058,0.117-0.058c0.117,0,0.292,0,0.35,0c0.525-0.117,0.759-0.525,0.993-1.109
		L99.99,15.065L99.99,15.065z"/>
</g>
</svg>
