<?xml version="1.0" encoding="utf-8"?>
<!-- Generator: Adobe Illustrator 17.0.0, SVG Export Plug-In . SVG Version: 6.00 Build 0)  -->
<!DOCTYPE svg PUBLIC "-//W3C//DTD SVG 1.1//EN" "http://www.w3.org/Graphics/SVG/1.1/DTD/svg11.dtd">
<svg version="1.1" id="Layer_1" xmlns="http://www.w3.org/2000/svg" xmlns:xlink="http://www.w3.org/1999/xlink" x="0px" y="0px"
	 width="130px" height="50px" viewBox="0 0 130 50" enable-background="new 0 0 130 50" xml:space="preserve">
<g>
	<path fill="#B2A5E5" d="M46.843,17.798h1.918l5.373,0.003c4.025,0,7.286,3.264,7.286,7.284c0,4.025-3.261,7.146-7.286,7.146
		l-5.373,0.002h-1.918V17.798z M43.921,35.235H63.78v-20.43H43.921V35.235z"/>
	<path fill="#B2A5E5" d="M54.132,29.709c2.631,0,4.766-2.04,4.766-4.672c0-2.631-2.134-4.73-4.766-4.73l-3.515,0.01h-1.262v9.394
		h1.262L54.132,29.709z"/>
	<path fill="#B2A5E5" d="M83.455,17.808v2.526H71.477v3.413h9.425v2.569h-9.425v3.404h11.978v2.522l-14.483-0.009l-0.009-14.43
		L83.455,17.808z M65.989,35.235H86.42v-20.43H65.989V35.235z"/>
	<path fill="#B2A5E5" d="M98.257,33.159c-4.497,0-8.14-3.644-8.14-8.14c0-4.494,3.642-8.141,8.14-8.141
		c4.498,0,8.142,3.647,8.142,8.141C106.399,29.515,102.755,33.159,98.257,33.159 M88.051,35.235h20.43v-20.43h-20.43V35.235z"/>
	<path fill="#B2A5E5" d="M98.257,19.691c-2.943,0-5.327,2.384-5.327,5.329c0,2.943,2.384,5.328,5.327,5.328
		c2.946,0,5.331-2.385,5.331-5.328C103.587,22.074,101.203,19.691,98.257,19.691"/>
	<path fill="#B2A5E5" d="M24.801,29.699h5.95v-9.383h-5.929v-2.528h14.484v2.528h-5.983v9.389h6.004l-0.006,2.49H24.801V29.699z
		 M21.858,35.235h20.43v-20.43h-20.43V35.235z"/>
</g>
</svg>
