<?xml version="1.0" encoding="utf-8"?>
<!-- Generator: Adobe Illustrator 17.0.0, SVG Export Plug-In . SVG Version: 6.00 Build 0)  -->
<!DOCTYPE svg PUBLIC "-//W3C//DTD SVG 1.1//EN" "http://www.w3.org/Graphics/SVG/1.1/DTD/svg11.dtd">
<svg version="1.1" id="Layer_1" xmlns="http://www.w3.org/2000/svg" xmlns:xlink="http://www.w3.org/1999/xlink" x="0px" y="0px"
	 width="85.167px" height="84.5px" viewBox="0 0 85.167 84.5" enable-background="new 0 0 85.167 84.5" xml:space="preserve">
<g>
	<path fill="#7A52EF" d="M55.82,63.232c-1.219,0-2.423-0.555-3.209-1.607L37.574,41.477l16.084-18.453
		c1.451-1.665,3.978-1.84,5.644-0.387c1.666,1.452,1.839,3.978,0.388,5.644L47.847,41.866L59.023,56.84
		c1.321,1.771,0.957,4.277-0.813,5.599C57.492,62.973,56.652,63.232,55.82,63.232z"/>
	<path fill="#7A52EF" d="M31.333,63.167c-2.209,0-4-1.791-4-4v-34c0-2.209,1.791-4,4-4s4,1.791,4,4v34
		C35.333,61.376,33.542,63.167,31.333,63.167z"/>
</g>
<path fill="#7A52EF" d="M42.625,84.646c-23.32,0-42.292-18.972-42.292-42.292c0-23.32,18.972-42.292,42.292-42.292
	s42.292,18.972,42.292,42.292C84.916,65.674,65.945,84.646,42.625,84.646z M42.625,8.063c-18.908,0-34.292,15.383-34.292,34.292
	s15.383,34.292,34.292,34.292c18.909,0,34.292-15.384,34.292-34.292S61.534,8.063,42.625,8.063z"/>
</svg>
