<?xml version="1.0" encoding="utf-8"?>
<!DOCTYPE svg PUBLIC "-//W3C//DTD SVG 1.1//EN" "http://www.w3.org/Graphics/SVG/1.1/DTD/svg11.dtd">
<svg version="1.1" id="Layer_1" xmlns="http://www.w3.org/2000/svg" xmlns:xlink="http://www.w3.org/1999/xlink" x="0px" y="0px"
	 width="85.167px" height="84.5px" viewBox="0 0 85.167 84.5" enable-background="new 0 0 85.167 84.5" xml:space="preserve">
<g>
	<path fill="#7A52EF" d="M42.625,1.063c-22.768,0-41.292,18.523-41.292,41.292c0,22.769,18.523,41.292,41.292,41.292
		s41.292-18.523,41.292-41.292C83.916,19.586,65.393,1.063,42.625,1.063z M35.333,59.167c0,2.209-1.791,4-4,4s-4-1.791-4-4v-34
		c0-2.209,1.791-4,4-4s4,1.791,4,4V59.167z M59.023,56.84c1.321,1.771,0.957,4.277-0.813,5.599c-0.718,0.535-1.558,0.794-2.39,0.794
		c-1.219,0-2.423-0.555-3.209-1.607L37.574,41.477l16.084-18.453c1.451-1.665,3.978-1.84,5.644-0.387
		c1.666,1.452,1.839,3.978,0.388,5.644L47.847,41.866L59.023,56.84z"/>
</g>
</svg>
